<svg xmlns="http://www.w3.org/2000/svg" viewBox="0 -0.5 319 113" shape-rendering="crispEdges"><path stroke="#000" d="M215 0h4m-4 1h1m2 0h2m-6 1h2m3 0h1m-6 1h1m4 0h2m4 0h3m-14 1h1m5 0h1m4 0h1m1 0h2m-15 1h1m5 0h2m2 0h2m2 0h1m-15 1h1m6 0h1m2 0h1m3 0h2m-16 1h2m5 0h1m2 0h1m4 0h1m-17 1h2m1 0h1m4 0h4m4 0h1m-17 1h2m1 0h2m4 0h2m5 0h2m-18 1h2m2 0h2m3 0h2m6 0h1m-18 1h2m3 0h1m3 0h2m6 0h1m-18 1h3m2 0h1m3 0h2m6 0h1m-18 1h1m1 0h1m2 0h1m4 0h1m6 0h1m1 0h3m-22 1h1m1 0h1m2 0h1m4 0h1m6 0h3m1 0h1m-22 1h1m1 0h2m1 0h1m4 0h1m6 0h2m2 0h1m-21 1h1m1 0h1m1 0h1m11 0h2m2 0h1m-21 1h5m11 0h1m3 0h1m-20 1h1m1 0h2m11 0h1m3 0h1m-20 1h2m13 0h1m3 0h1m-89 1h2m68 0h1m13 0h1m3 0h1m-90 1h2m2 0h2m65 0h2m12 0h1m3 0h1m-91 1h2m4 0h3m64 0h2m15 0h1m-92 1h2m7 0h2m64 0h1m14 0h2m-94 1h3m10 0h2m63 0h2m12 0h1m-94 1h2m14 0h3m61 0h1m12 0h1m-95 1h2m17 0h2m60 0h2m10 0h1m-97 1h3m21 0h2m60 0h2m8 0h1m-97 1h1m25 0h2m59 0h2m6 0h1m-98 1h2m28 0h3m58 0h2m3 0h2m-100 1h3m32 0h1m58 0h2m1 0h2m-100 1h2m35 0h3m56 0h3m-101 1h2m40 0h2m54 0h4m-103 1h2m43 0h1m51 0h2m3 0h1m-105 1h3m44 0h3m48 0h2m-101 1h2m49 0h2m-54 1h2m52 0h3m-59 1h2m56 0h2m33 0h1m-94 1h1m59 0h2m31 0h3m-98 1h2m62 0h2m29 0h1m1 0h4m-103 1h2m66 0h2m27 0h1m4 0h12m-115 1h1m70 0h1m26 0h1m15 0h1m-116 1h1m72 0h3m23 0h1m15 0h1m-118 1h2m76 0h2m21 0h1m15 0h1m-120 1h2m80 0h2m19 0h1m15 0h1m-120 1h1m83 0h2m17 0h1m15 0h1m-122 1h2m86 0h1m16 0h1m15 0h1m-124 1h2m89 0h2m14 0h1m15 0h1m-125 1h2m92 0h2m12 0h1m15 0h1m-126 1h1m96 0h2m10 0h1m14 0h1m-126 1h1m99 0h2m8 0h1m14 0h1m-128 1h2m43 0h10m49 0h1m7 0h1m14 0h1m-130 1h2m43 0h3m59 0h2m5 0h1m14 0h1M99 53h2m43 0h3m63 0h2m3 0h1m14 0h1M98 54h1m44 0h2m3 0h1m5 0h2m56 0h1m2 0h1m14 0h1M96 55h2m43 0h2m5 0h1m6 0h4m54 0h3m14 0h1M95 56h2m44 0h1m6 0h1m9 0h3m55 0h1m13 0h1M93 57h2m45 0h1m7 0h1m11 0h2m55 0h2m11 0h1M92 58h2m44 0h2m8 0h1m12 0h2m56 0h2m9 0h1M90 59h2m45 0h2m9 0h1m14 0h1m57 0h2m7 0h1M88 60h2m46 0h2m9 0h2m14 0h2m58 0h1m6 0h1M87 61h1m48 0h1m10 0h1m16 0h2m58 0h1m5 0h1M85 62h2m48 0h2m10 0h1m17 0h1m59 0h2M83 63h2m50 0h1m11 0h1m18 0h1m60 0h2M81 64h2m51 0h2m11 0h1m18 0h1m62 0h2M79 65h2m53 0h1m12 0h1m6 0h8m4 0h1m64 0h1M77 66h2m55 0h1m12 0h1m1 0h6m11 0h1m65 0h2M75 67h2m56 0h17m16 0h1m67 0h3M73 68h2m59 0h1m12 0h1m18 0h1m70 0h1M71 69h2m61 0h1m12 0h1m18 0h1m71 0h1M69 70h2m63 0h1m12 0h1m18 0h1m72 0h2M68 71h2m64 0h1m12 0h1m17 0h2m74 0h2M66 72h2m66 0h1m12 0h1m16 0h2m77 0h2M63 73h3m68 0h2m11 0h1m15 0h2m80 0h2M61 74h2m72 0h2m10 0h1m13 0h3m83 0h2M60 75h2m74 0h3m8 0h1m11 0h3m87 0h2M58 76h2m78 0h22m91 0h2M56 77h2m89 0h1m105 0h1M54 78h3m90 0h1m106 0h2M52 79h2m93 0h1m108 0h2M51 80h1m95 0h1m110 0h2M48 81h3m96 0h1m112 0h2M46 82h3m98 0h1m114 0h2M45 83h2m100 0h1m116 0h2M43 84h2m102 0h2m117 0h2M42 85h1m225 0h3M40 86h2m228 0h3M38 87h3m232 0h3M37 88h2m237 0h2M35 89h2m240 0h4M34 90h2m245 0h3M32 91h2m250 0h2M30 92h3m253 0h4M29 93h2m258 0h3M27 94h3m262 0h2M26 95h2m266 0h3M24 96h2m270 0h4M23 97h2m274 0h3M21 98h2m279 0h2M19 99h2m283 0h3m-290 1h2m287 0h4m-294 1h2m240 0h33m18 0h3m-298 1h2m242 0h1m32 0h14m6 0h4m-303 1h2m244 0h1m45 0h14m-307 1h2m245 0h1m57 0h3M0 105h12m246 0h1M7 106h2m3 0h18m228 0h1M5 107h3m21 0h28m201 0h1M3 108h3m49 0h2m201 0h1M1 109h3m51 0h1m202 0h1M0 110h2m53 0h1m202 0h1m-204 1h1m203 0h1m-205 1h1m203 0h1"/><path stroke="#fff" d="M216 1h2m-2 1h3m-4 1h4m-4 1h5m6 0h1m-12 1h5m6 0h2m-13 1h6m4 0h3m-12 1h5m4 0h4m-14 1h1m1 0h4m4 0h4m-14 1h1m2 0h4m2 0h5m-14 1h2m2 0h3m2 0h6m-15 1h3m1 0h3m2 0h6m-14 1h2m1 0h3m2 0h6m-16 1h1m1 0h2m1 0h4m1 0h6m-16 1h1m1 0h2m1 0h4m1 0h6m3 0h1m-20 1h1m2 0h1m1 0h4m1 0h6m2 0h2m-19 1h1m1 0h1m1 0h11m2 0h2m-15 1h11m1 0h3m-18 1h1m2 0h11m1 0h3m-17 1h13m1 0h3m-17 1h13m1 0h3m-87 1h2m69 0h12m1 0h3m-88 1h4m69 0h15m-89 1h7m67 0h14m-89 1h10m67 0h12m-91 1h14m65 0h12m-92 1h17m64 0h10m-93 1h21m64 0h8m-95 1h25m63 0h6m-95 1h28m63 0h3m-95 1h32m61 0h1m-96 1h35m-37 1h40m-41 1h43m-44 1h44m-46 1h49m-50 1h52m-54 1h56m-57 1h59m-60 1h62m32 0h1m-97 1h66m30 0h4m-102 1h70m28 0h15m-114 1h72m27 0h15m-115 1h76m24 0h15m-117 1h80m22 0h15m-118 1h83m20 0h15m-119 1h86m18 0h15m-121 1h89m17 0h15m-122 1h92m15 0h15m-124 1h96m13 0h14m-124 1h99m11 0h14m-125 1h43m10 0h49m9 0h14m-127 1h43m3 0h59m8 0h14m-129 1h43m3 0h63m6 0h14M99 54h44m2 0h3m1 0h5m2 0h56m4 0h14M98 55h43m2 0h5m1 0h6m4 0h54m3 0h14M97 56h44m1 0h6m1 0h9m3 0h55m1 0h13M95 57h45m1 0h7m1 0h11m2 0h55m2 0h11M94 58h44m2 0h8m1 0h12m2 0h56m2 0h9M92 59h45m2 0h9m1 0h14m1 0h57m2 0h7M90 60h46m2 0h9m2 0h14m2 0h58m1 0h6M88 61h48m1 0h10m1 0h16m2 0h58m1 0h5M87 62h48m2 0h10m1 0h17m1 0h59m2 0h3M85 63h50m1 0h11m1 0h18m1 0h60M83 64h51m2 0h11m1 0h18m1 0h62M81 65h53m1 0h12m1 0h6m8 0h4m1 0h64M79 66h55m1 0h12m1 0h1m6 0h11m1 0h65M77 67h56m17 0h16m1 0h67M75 68h59m1 0h12m1 0h18m1 0h70M73 69h61m1 0h12m1 0h18m1 0h71M71 70h63m1 0h12m1 0h18m1 0h72M70 71h64m1 0h12m1 0h17m2 0h74M68 72h66m1 0h12m1 0h16m2 0h77M66 73h68m2 0h11m1 0h15m2 0h80M63 74h72m2 0h10m1 0h13m3 0h83M62 75h74m3 0h8m1 0h11m3 0h87M60 76h78m22 0h91M58 77h89m1 0h105M57 78h90m1 0h106M54 79h93m1 0h108M52 80h95m1 0h110M51 81h96m1 0h112M49 82h98m1 0h114M47 83h100m1 0h116M45 84h102m2 0h117M43 85h225M42 86h228M41 87h232M39 88h237M37 89h240M36 90h245M34 91h250M33 92h253M31 93h258M30 94h262M28 95h266M26 96h270M25 97h274M23 98h279M21 99h283m-285 1h287m-288 1h240m33 0h18m-293 1h242m47 0h6m-297 1h244m-245 1h245m-246 1h246m-228 1h228m-201 1h201m-201 1h201m-202 1h202m-202 1h202m-202 1h203m-203 1h203"/></svg>